<svg xmlns="http://www.w3.org/2000/svg" width="24" height="25" viewBox="0 0 24 25" fill="none">
  <path d="M20.86 9.12L13.93 3.58C12.86 2.72 11.13 2.72 10.07 3.57L3.14002 9.12C2.36002 9.74 1.86002 11.05 2.03002 12.03L3.36002 19.99C3.60002 21.41 4.96002 22.56 6.40002 22.56H17.6C19.03 22.56 20.4 21.4 20.64 19.99L21.97 12.03C22.13 11.05 21.63 9.74 20.86 9.12ZM12 16.25C11.337 16.25 10.7011 15.9866 10.2323 15.5178C9.76341 15.0489 9.50002 14.413 9.50002 13.75C9.50002 13.087 9.76341 12.4511 10.2323 11.9822C10.7011 11.5134 11.337 11.25 12 11.25C12.6631 11.25 13.2989 11.5134 13.7678 11.9822C14.2366 12.4511 14.5 13.087 14.5 13.75C14.5 14.413 14.2366 15.0489 13.7678 15.5178C13.2989 15.9866 12.6631 16.25 12 16.25Z" fill="#608DFF"/>
</svg>